<mxfile host="app.diagrams.net" modified="2022-08-23T02:52:03.561Z" agent="5.0 (Windows NT 10.0; Win64; x64) AppleWebKit/537.36 (KHTML, like Gecko) Chrome/104.0.0.0 Safari/537.36" etag="6m8w6QffA7EATEbYYxTh" version="20.2.6" type="github">
  <diagram id="4WhJq_c2hJGKalem2-71" name="第 1 页">
    <mxGraphModel dx="1360" dy="802" grid="1" gridSize="10" guides="1" tooltips="1" connect="1" arrows="1" fold="1" page="1" pageScale="1" pageWidth="827" pageHeight="1169" math="0" shadow="0">
      <root>
        <mxCell id="0" />
        <mxCell id="1" parent="0" />
        <mxCell id="tj6sGX2Gv8RbAJB5ziJA-1" value="&lt;b&gt;nacos&lt;/b&gt;" style="ellipse;shape=cloud;whiteSpace=wrap;html=1;" vertex="1" parent="1">
          <mxGeometry x="330" y="130" width="180" height="130" as="geometry" />
        </mxCell>
        <mxCell id="tj6sGX2Gv8RbAJB5ziJA-7" value="Sentinel Dashboard" style="swimlane;" vertex="1" parent="1">
          <mxGeometry x="90" y="310" width="190" height="140" as="geometry" />
        </mxCell>
      </root>
    </mxGraphModel>
  </diagram>
</mxfile>
